<svg id="symbW1" xmlns="http://www.w3.org/2000/svg" width="200" height="200"><path d="M105.53 168.75l-11.77-10.565-13.603 8.135-7.124-14.097-15.606 2.673-1.536-15.685-15.53-3.143 4.263-15.196-13.374-8.47 9.503-12.673-9.395-12.747 13.452-8.35-4.136-15.283 15.568-2.957 1.678-15.713 15.602 2.82L80.78 33.46l13.501 8.275 11.843-10.486 9.615 12.556 14.896-4.981L134.994 54h15.839l-1.37 15.697 14.7 5.6-7.003 14.186 11.59 10.818-11.685 10.67 6.875 14.222-14.769 6.09L150.435 147h-15.863l-4.53 15.112-14.812-5.813-9.7 12.451zm-10.692-21.716l9.52 8.546 7.85-10.076 11.979 4.718L127.85 138h12.817l-1.02-12.697 11.942-4.94-5.568-11.519 9.435-8.615-9.35-8.727 5.659-11.462-11.867-5.35L141.005 62h-12.827l-3.53-12.28-12.027 4.849-7.77-10.147-9.59 8.491-10.925-6.694-5.863 11.34-12.617-2.28-1.358 12.724-12.576 2.39 3.346 12.361-10.857 6.74 7.58 10.28-7.672 10.23 10.8 6.84-3.453 12.31 12.549 2.54 1.242 12.677 12.619-2.162 5.762 11.402 11-6.577z" fill="#fff"/></svg>