<svg id="symbW10" xmlns="http://www.w3.org/2000/svg" width="200" height="200"><path d="M67.65 37.787c3.143.888 6.343 1.81 9.257 2.668 5.535-4.817 12.617-7.676 20.204-7.676 12.217 0 23.471 7.54 28.67 19.207l1.305 2.93 3.196-.48a19.286 19.286 0 0 1 2.888-.229c7.203 0 14.76 4.593 18.026 10.592L152.394 67h2.523c.215 0 .417.01.62 0h.963c12.79 0 22.491 9.38 22.491 21.548 0 10.016-7.773 16.632-17.659 18.787l-.863 8.662c14.931-2.199 26.977-12.903 26.977-27.819 0-16.303-13.388-29.656-30.144-30.415-5.037-7.42-14.712-11.935-24.132-11.935-.333 0-.667.006-1.003.02C125.133 32.723 111.68 24.4 97.11 24.4c-11.487 0-22.058 5.098-29.46 13.387z" fill="#fff"/><path d="M133.143 134.929c-.526 0-1.667.035-1.667.035-.207.023-.41.036-.624.036h-86.08a8.36 8.36 0 0 1-1.491-.15c-17.253-1.348-30.731-17.245-30.731-35.235 0-13.874 8.001-26.322 20.15-31.742 4.722-19.12 21.376-32.753 40.462-32.753 15.182 0 29.2 8.753 36.53 22.552.351-.013.7-.02 1.046-.02 9.817 0 19.9 4.747 25.148 12.55 17.461.799 31.413 14.839 31.413 31.983 0 17.648-15.969 32.744-34.156 32.744zM131.364 126h.81c.344.02.883.04 1.239.04 13.33 0 25.075-11.065 25.075-23.855 0-12.796-10.337-22.597-23.666-22.597-.095 0-.689.39-.776.394-.21.01-.421.018-.645.018h-2.629l-1.249-2.314c-3.402-6.309-11.279-11.223-18.785-11.223-.955 0-1.939.079-3.009.24l-3.33.505-1.36-3.08C97.621 51.857 85.893 43.93 73.162 43.93c-15.647 0-29.244 11.768-32.33 27.983l-.471 2.476-2.374.849c-9.945 3.553-16.627 14.109-16.627 25.135 0 13.47 10.01 24.727 22.787 25.626h.582c.056.01.112-.009.168 0h85.745c.246-.03.48 0 .722 0zM52.367 170.463c-2.333 3.957-7.993 4.943-12.641 2.17-4.639-2.754-6.512-8.173-4.167-12.125 2.327-3.942 22.772-24.138 22.33-19.455-.433 4.37-3.185 25.457-5.522 29.41zM93.946 170.463c-2.336 3.957-8.005 4.943-12.63 2.17-4.652-2.754-6.526-8.173-4.16-12.125 2.334-3.942 22.764-24.138 22.327-19.455-.433 4.37-3.189 25.457-5.537 29.41zM133.546 170.463c-2.336 3.957-8.005 4.943-12.63 2.17-4.652-2.754-6.526-8.173-4.16-12.125 2.334-3.942 22.764-24.138 22.327-19.455-.433 4.37-3.189 25.457-5.537 29.41z" fill="#fff"/></svg>