<svg id="symbW19" xmlns="http://www.w3.org/2000/svg" width="200" height="200"><path d="M81 168.208A2.775 2.775 0 0 1 78.21 171h-9.088l6.66 6.685c1.105 1.08 1.105 3.036 0 4.143a2.882 2.882 0 0 1-1.975.816c-.71 0-.594-.29-1.148-.816L66 175.142v9.452c0 1.533-.829 2.906-2.382 2.906-1.556 0-2.618-1.346-2.618-2.906v-9.452l-6.686 6.686c-.56.552-.172.816-.88.816-.714 0-1.422-.29-1.974-.816-1.087-1.074-1.087-3.09 0-4.168l6.683-6.66h-9.454c-1.524 0-2.79-.896-2.79-2.423 0-1.562 1.266-2.577 2.79-2.577h9.454l-6.683-6.692c-1.087-1.08-1.087-3.213 0-4.32 1.105-1.081 1.768-1.081 2.854 0L61 161.678v-9.459c0-1.554 1.131-2.822 2.688-2.822 1.526 0 2.312 1.268 2.312 2.822v9.432l6.66-6.665c1.106-1.08 2.041-1.08 3.122 0 1.105 1.08 1.105 3.267 0 4.347L69.122 166h9.088a2.788 2.788 0 0 1 2.79 2.793v-.585zm.336.189zM129 168.208a2.775 2.775 0 0 1-2.79 2.792h-9.606l6.66 6.685c1.106 1.08 1.106 3.036 0 4.143a2.881 2.881 0 0 1-1.974.816c-.711 0-1.077-.29-1.63-.816l-6.66-6.686v9.452c0 1.533-1.311 2.906-2.864 2.906-1.557 0-2.136-1.346-2.136-2.906v-9.452l-6.686 6.686c-.56.552.31.816-.397.816-.715 0-1.422-.29-1.975-.816-1.086-1.074-1.086-3.09 0-4.168l6.683-6.66h-9.454c-1.523 0-2.79-.896-2.79-2.423 0-1.562 1.267-2.577 2.79-2.577h9.454l-6.683-6.692c-1.086-1.08-1.086-3.213 0-4.32 1.106-1.081 1.286-1.081 2.372 0l6.686 6.691v-9.459c0-1.554.649-2.822 2.205-2.822 1.527 0 2.795 1.268 2.795 2.822v9.432l6.66-6.665c1.106-1.08 2.524-1.08 3.604 0 1.106 1.08 1.106 3.267 0 4.347l-6.66 6.666h9.606a2.788 2.788 0 0 1 2.79 2.793v-.585zm-.182.189zM67.65 37.787c3.143.888 6.343 1.81 9.257 2.668 5.535-4.817 12.617-7.676 20.204-7.676 12.217 0 23.471 7.54 28.67 19.207l1.305 2.93 3.196-.48a19.286 19.286 0 0 1 2.888-.229c7.203 0 14.76 4.593 18.026 10.592L152.394 67h2.523c.215 0 .417.01.62 0h.963c12.79 0 22.491 9.38 22.491 21.548 0 10.016-7.773 16.632-17.659 18.787l-.863 8.662c14.931-2.199 26.977-12.903 26.977-27.819 0-16.303-13.388-29.656-30.144-30.415-5.037-7.42-14.712-11.935-24.132-11.935-.333 0-.667.006-1.003.02C125.133 32.723 111.68 24.4 97.11 24.4c-11.487 0-22.058 5.098-29.46 13.387z" fill="#fff"/><path d="M133.143 134.929c-.526 0-1.667.035-1.667.035-.207.023-.41.036-.624.036h-86.08a8.36 8.36 0 0 1-1.491-.15c-17.253-1.348-30.731-17.245-30.731-35.235 0-13.874 8.001-26.322 20.15-31.742 4.722-19.12 21.376-32.753 40.462-32.753 15.182 0 29.2 8.753 36.53 22.552.351-.013.7-.02 1.046-.02 9.817 0 19.9 4.747 25.148 12.55 17.461.799 31.413 14.839 31.413 31.983 0 17.648-15.969 32.744-34.156 32.744zM131.364 126h.81c.344.02.883.04 1.239.04 13.33 0 25.075-11.065 25.075-23.855 0-12.796-10.337-22.597-23.666-22.597-.095 0-.689.39-.776.394-.21.01-.421.018-.645.018h-2.629l-1.249-2.314c-3.402-6.309-11.279-11.223-18.785-11.223-.955 0-1.939.079-3.009.24l-3.33.505-1.36-3.08C97.621 51.857 85.893 43.93 73.162 43.93c-15.647 0-29.244 11.768-32.33 27.983l-.471 2.476-2.374.849c-9.945 3.553-16.627 14.109-16.627 25.135 0 13.47 10.01 24.727 22.787 25.626h.582c.056.01.112-.009.168 0h85.745c.246-.03.48 0 .722 0z" fill="#fff"/></svg>