<svg id="symbW22" xmlns="http://www.w3.org/2000/svg" width="200" height="200"><path d="M90.5 159.208A2.775 2.775 0 0 1 87.71 162h-9.3l6.66 6.685c1.106 1.08 1.106 3.036 0 4.143a2.882 2.882 0 0 1-1.974.816c-.71 0-1.383-.29-1.937-.816l-6.659-6.686v9.31c0 1.533-1.582 3.048-3.135 3.048-1.557 0-1.865-1.346-1.865-2.906v-9.452l-6.686 6.686c-.56.552.617.816-.09.816-.715 0-1.423-.29-1.975-.816-1.087-1.074-1.087-3.09 0-4.168l6.683-6.66h-9.454c-1.524 0-2.79-.896-2.79-2.423 0-1.562 1.266-2.577 2.79-2.577h9.454l-6.683-6.692c-1.087-1.08-1.087-3.213 0-4.32 1.105-1.081.979-1.081 2.065 0l6.686 6.691v-9.459c0-1.554.342-2.822 1.899-2.822 1.526 0 3.101 1.268 3.101 2.822v9.432l6.66-6.665c1.106-1.08 2.83-1.08 3.91 0 1.106 1.08 1.106 3.267 0 4.347L78.41 157h9.3a2.788 2.788 0 0 1 2.79 2.793v-.585zm.124.189zM117.985 174.765c-2.337 3.957-8.005 4.943-12.63 2.17-4.652-2.754-6.527-8.172-4.161-12.125 2.335-3.942 22.765-24.138 22.328-19.454-.433 4.37-3.189 25.457-5.537 29.41zM67.888 35.292c3.141.889 6.34 1.81 9.253 2.669 5.533-4.817 12.612-7.676 20.196-7.676 12.213 0 23.463 7.54 28.66 19.21l1.305 2.93 3.194-.48c1.027-.154 1.97-.229 2.887-.229 7.2 0 14.756 5.082 18.02 11.084l1.198 2.2 2.149-.438c.215 0 .86-.302 1.063-.312l.892-.237c12.786 0 20.447 9.38 20.447 21.552 0 10.018-7.77 17.135-17.652 19.29v8.665c14.926-2.2 26.968-12.906 26.968-27.826 0-16.307-12.212-29.662-28.962-30.421-5.035-7.42-14.706-11.938-24.123-11.938-.333 0-.667.007-1.003.02-7.031-13.126-20.479-21.452-35.043-21.452-11.482 0-22.05 5.1-29.449 13.39z" fill="#fff"/><path d="M132.643 131.929a78.7 78.7 0 0 0-1.667.035c-.207.023-.41.036-.624.036h-86.08a8.392 8.392 0 0 1-1.491-.15c-17.253-1.348-30.731-17.245-30.731-35.235 0-13.874 8.001-26.322 20.15-31.742 4.722-19.12 21.376-32.753 40.462-32.753 15.182 0 29.2 8.753 36.53 22.552.351-.013.7-.02 1.046-.02 9.817 0 19.9 4.747 25.148 12.55 17.461.799 31.413 14.839 31.413 31.983 0 17.648-15.969 32.744-34.156 32.744zM130.864 123h.81c.344.02.883.041 1.239.041 13.33 0 25.075-11.066 25.075-23.856 0-12.796-10.337-22.597-23.666-22.597-.095 0-.689.39-.776.394-.21.01-.421.018-.645.018h-2.629l-1.249-2.314c-3.402-6.309-11.279-11.223-18.785-11.223-.955 0-1.939.078-3.009.241l-3.33.504-1.36-3.08C97.121 48.857 85.393 40.93 72.662 40.93c-15.647 0-29.244 11.768-32.33 27.983l-.471 2.477-2.374.848C27.542 75.792 20.86 86.348 20.86 97.374c0 13.47 10.01 24.727 22.787 25.626h.582c.056.01.112-.009.168 0h85.745c.246-.03.48 0 .722 0z" fill="#fff"/></svg>