<svg id="symbW6" xmlns="http://www.w3.org/2000/svg" width="200" height="200"><path d="M70.459 176.95c-2.333 3.956-7.994 4.943-12.642 2.17-4.638-2.754-6.511-8.173-4.167-12.126 2.327-3.941 22.773-24.138 22.33-19.454-.433 4.37-3.185 25.457-5.521 29.41zM112.038 176.95c-2.337 3.956-8.005 4.943-12.63 2.17-4.652-2.754-6.527-8.173-4.161-12.126 2.335-3.941 22.765-24.138 22.328-19.454-.433 4.37-3.189 25.457-5.537 29.41zM96.306 57.642l-1.88-6.678 10.044-1.938.964-10.197 10.087 1.825 4.6-9.116 8.802 5.335 7.574-6.805 6.297 8.127 9.563-3.033L155.323 45h10.234l-.78 10.21 9.543 3.356-4.41 9.19 7.548 6.975-7.469 6.952 4.553 9.207-13.34 5.677 2.75 8.433h-3.948c.315 2.589.664 5.503.996 8.003V113h11.718l-.725-12.596 12.942-5.484-5.679-11.487 9.319-8.673-9.428-8.712 5.506-11.477-11.912-5.349 1.123-11.915-12.923-.812-3.708-12.294-11.932 4.946-7.855-10.14-9.46 8.497-10.974-6.652-5.735 11.366-12.604-2.28-1.202 12.729-12.54 2.418L87.05 52.6a1831.08 1831.08 0 0 0 9.257 5.043z" fill="#fff"/><path d="M132.143 142.929c-.526 0-1.667.035-1.667.035-.207.023-.41.036-.624.036h-86.08a8.363 8.363 0 0 1-1.491-.15c-17.253-1.348-30.731-17.245-30.731-35.235 0-13.874 8.001-26.322 20.15-31.742 4.722-19.12 21.376-32.753 40.462-32.753 15.182 0 29.2 8.753 36.53 22.552.351-.013.7-.02 1.046-.02 9.817 0 19.9 4.747 25.148 12.55 17.461.799 31.413 14.839 31.413 31.983 0 17.648-15.969 32.744-34.156 32.744zM130.364 134h.81c.344.02.883.04 1.239.04 13.33 0 25.075-11.065 25.075-23.855 0-12.796-10.337-22.597-23.666-22.597-.095 0-.689.39-.776.394-.21.01-.421.018-.645.018h-2.629l-1.249-2.314c-3.402-6.309-11.279-11.223-18.785-11.223-.955 0-1.939.079-3.009.24l-3.33.505-1.36-3.08C96.621 59.857 84.893 51.93 72.162 51.93c-15.647 0-29.244 11.768-32.33 27.983l-.471 2.476-2.374.849c-9.945 3.553-16.627 14.109-16.627 25.135 0 13.47 10.01 24.727 22.787 25.626h.582c.056.01.112-.009.168 0h85.745c.246-.03.48 0 .722 0z" fill="#fff"/></svg>