<svg id="iC2" xmlns="http://www.w3.org/2000/svg" width="200" height="200"><path d="M77.898 105.04l7.66-10.212-7.57-10.272 10.84-6.728-3.334-12.326 12.548-2.384 1.354-12.68 12.584 2.272 5.85-11.314 10.895 6.675 9.557-8.461 7.752 10.123 12.008-4.977L161.559 57h12.784l-1.105 12.663 11.849 5.467-5.646 11.438 9.337 8.716-9.419 8.602 5.549 11.48-11.91 4.966L174.015 133h-12.789l-3.652 12.19-11.95-4.747-7.826 10.047-9.496-8.52-10.97 6.561-5.745-11.372L99 139.313l-1.242-12.645-12.52-2.534 3.442-12.27-10.782-6.823z" fill="#fdcb20"/><path d="M133.307 161.99h-89.32c-.58 0-1.072-.08-1.447-.149-17.201-1.33-30.66-16.168-30.66-34.111 0-13.92 8.07-26.397 20.3-31.745 4.647-19.238 21.349-32.98 40.497-32.98 15.268 0 29.364 8.865 36.652 22.82 10.422-.532 19.96 4.411 25.393 12.646 17.511.673 31.543 14.706 31.543 31.857 0 17.574-14.838 31.661-32.958 31.661z" fill="#aaa"/></svg>