<svg id="iC8" xmlns="http://www.w3.org/2000/svg" width="200" height="200"><g fill="#3794fa"><path d="M46.859 176.45c-2.333 3.956-7.994 4.943-12.642 2.17-4.638-2.754-6.51-8.173-4.167-12.126 2.327-3.941 22.773-24.138 22.33-19.454-.432 4.37-3.185 25.457-5.521 29.41zM88.438 176.45c-2.337 3.956-8.005 4.943-12.63 2.17-4.652-2.754-6.527-8.173-4.161-12.126 2.334-3.941 22.765-24.138 22.328-19.454-.433 4.37-3.189 25.457-5.537 29.41zM128.038 176.45c-2.337 3.956-8.005 4.943-12.63 2.17-4.652-2.754-6.527-8.173-4.161-12.126 2.334-3.941 22.765-24.138 22.328-19.454-.433 4.37-3.189 25.457-5.537 29.41z"/></g><path d="M77.898 86.04l7.66-10.212-7.57-10.272 10.84-6.728-3.334-12.326 12.548-2.384 1.354-12.68 12.584 2.272 5.85-11.314 10.895 6.675 9.557-8.461 7.752 10.123 12.008-4.977L161.559 38h12.784l-1.105 12.663 11.849 5.467-5.646 11.438 9.337 8.716-9.419 8.602 5.549 11.48-11.91 4.966L174.015 114h-12.789l-3.652 12.19-11.95-4.747-7.826 10.047-9.496-8.52-10.97 6.561-5.745-11.372L99 120.313l-1.242-12.645-12.52-2.534 3.442-12.27-10.782-6.823z" fill="#fdcb20"/><path d="M133.307 142.99h-89.32c-.58 0-1.072-.08-1.447-.149-17.201-1.33-30.66-16.169-30.66-34.111 0-13.92 8.07-26.397 20.3-31.745 4.647-19.238 21.349-32.98 40.497-32.98 15.268 0 29.364 8.865 36.652 22.82 10.422-.532 19.96 4.411 25.393 12.646 17.511.673 31.543 14.706 31.543 31.857 0 17.574-14.838 31.661-32.958 31.661z" fill="#aaa"/></svg>