<svg id="iC17" xmlns="http://www.w3.org/2000/svg" width="200" height="200"><path d="M77.898 84.04l7.66-10.212-7.57-10.272 10.84-6.728-3.334-12.326 12.548-2.384 1.354-12.68 12.584 2.272 5.85-11.314 10.895 6.675 9.557-8.461 7.752 10.123 12.008-4.977L161.559 36h12.784l-1.105 12.663 11.849 5.467-5.646 11.438 9.337 8.716-9.419 8.602 5.549 11.48-11.91 4.966L174.015 112h-12.789l-3.652 12.19-11.95-4.747-7.826 10.047-9.496-8.52-10.97 6.561-5.745-11.372L99 118.313l-1.242-12.645-12.52-2.534 3.442-12.271-10.782-6.822z" fill="#fdcb20"/><path d="M133.307 140.99h-89.32c-.58 0-1.072-.08-1.447-.149-17.201-1.33-30.66-16.169-30.66-34.111 0-13.92 8.07-26.397 20.3-31.745 4.647-19.238 21.349-32.98 40.497-32.98 15.268 0 29.364 8.865 36.652 22.82 10.422-.532 19.96 4.411 25.393 12.646 17.511.673 31.543 14.706 31.543 31.857 0 17.574-14.838 31.661-32.958 31.661z" fill="#aaa"/><path d="M83 164.572A2.414 2.414 0 0 1 80.573 167h-8.198l5.793 5.812c.962.94.962 2.393 0 3.355-.48.458-1.099.71-1.717.71-.618 0-1.176-.252-1.658-.71L69 170.355v8.217c0 1.334-1.165 2.428-2.516 2.428-1.354 0-2.484-1.071-2.484-2.428v-8.217l-5.816 5.812c-.487.481-1.014.71-1.63.71a2.502 2.502 0 0 1-1.717-.71 2.367 2.367 0 0 1 0-3.378L60.651 167h-8.224c-1.325 0-2.427-1.186-2.427-2.515 0-1.357 1.102-2.485 2.427-2.485h8.224l-5.814-5.818c-.944-.94-.944-2.387 0-3.35.962-.938 2.402-.938 3.347 0L64 158.652v-8.223c0-1.351 1.13-2.428 2.484-2.428 1.329 0 2.516 1.077 2.516 2.428v8.2l5.793-5.795c.962-.94 2.436-.94 3.375 0 .962.94.962 2.433 0 3.372L72.375 162h8.198A2.425 2.425 0 0 1 83 164.428v.144zm0-.08zM124 164.572a2.414 2.414 0 0 1-2.427 2.428h-8.198l5.793 5.812c.962.94.962 2.393 0 3.355-.48.458-1.099.71-1.717.71-.618 0-1.176-.252-1.658-.71L110 170.355v8.217c0 1.334-1.165 2.428-2.516 2.428-1.354 0-2.484-1.071-2.484-2.428v-8.217l-5.816 5.812c-.487.481-1.014.71-1.63.71a2.502 2.502 0 0 1-1.717-.71 2.367 2.367 0 0 1 0-3.378l5.814-5.789h-8.224c-1.325 0-2.427-1.186-2.427-2.515 0-1.357 1.102-2.485 2.427-2.485h8.224l-5.814-5.818c-.944-.94-.944-2.387 0-3.35.962-.938 2.402-.938 3.347 0l5.816 5.819v-8.223c0-1.351 1.13-2.428 2.484-2.428 1.329 0 2.516 1.077 2.516 2.428v8.2l5.793-5.795c.962-.94 2.436-.94 3.375 0 .962.94.962 2.433 0 3.372L113.375 162h8.198a2.425 2.425 0 0 1 2.427 2.428v.144zm0-.08z" fill="#37c6ff"/></svg>