<svg id="iC7" xmlns="http://www.w3.org/2000/svg" width="200" height="200"><g fill="#3794fa"><path d="M69.567 170.913c-2.333 3.957-7.993 4.943-12.641 2.17-4.639-2.754-6.512-8.172-4.167-12.125 2.327-3.942 22.772-24.138 22.33-19.455-.433 4.37-3.185 25.457-5.522 29.41zM111.146 170.913c-2.336 3.957-8.005 4.943-12.63 2.17-4.652-2.754-6.526-8.172-4.16-12.125 2.334-3.942 22.764-24.138 22.327-19.455-.433 4.37-3.189 25.457-5.537 29.41z"/></g><path d="M157.84 61.33c-.326 0-.616.028-.928.028-4.115-7.541-12.423-12.683-22.054-12.683a24.82 24.82 0 0 0-3.745.292c-6.074-13.623-19.293-23.112-34.652-23.112-18.555 0-33.985 13.75-37.48 31.981-11.598 4.096-19.983 15.449-19.983 28.845 0 16.164 12.13 30.22 27.46 31.319.319.028.822 0 1.122 0h87.777c.17 0 .468.04.642.04.624.024 1.04-.097 1.684-.097 16.127 0 29.37-13.236 29.37-28.664 0-15.44-13.087-27.95-29.214-27.95z" fill="#747677"/><path d="M132.807 137.99h-89.32c-.58 0-1.072-.08-1.447-.149-17.201-1.33-30.66-16.169-30.66-34.111 0-13.92 8.07-26.397 20.3-31.745 4.647-19.238 21.349-32.98 40.497-32.98 15.268 0 29.364 8.865 36.652 22.82 10.422-.532 19.96 4.411 25.393 12.646 17.511.673 31.543 14.706 31.543 31.857 0 17.574-14.838 31.661-32.958 31.661z" fill="#aaa"/></svg>